<svg width="188" height="74" viewBox="0 0 188 74" fill="none" xmlns="http://www.w3.org/2000/svg">
<path d="M0.714478 2.26382H18.6004C22.7431 2.26382 26.4176 3.03639 29.6237 4.58153C32.8298 6.12668 35.3155 8.31863 37.0806 11.1574C38.8458 13.9961 39.7284 17.32 39.7284 21.1289C39.7284 24.9379 38.8458 28.2618 37.0806 31.1005C35.3155 33.9393 32.8298 36.1312 29.6237 37.6764C26.4176 39.2215 22.7431 39.9941 18.6004 39.9941H0.714478V2.26382ZM18.1681 31.4778C21.4102 31.4778 24.0039 30.5615 25.9492 28.7289C27.9306 26.8963 28.9212 24.363 28.9212 21.1289C28.9212 17.8949 27.9306 15.3616 25.9492 13.529C24.0039 11.6964 21.4102 10.7801 18.1681 10.7801H11.4136V31.4778H18.1681Z" fill="white"/>
<path d="M57.3534 10.295C62.2166 10.295 65.9271 11.4089 68.4848 13.6368C71.0425 15.8287 72.3213 19.2065 72.3213 23.7701V39.9941H62.757V36.2211C61.28 39.0598 58.3981 40.4792 54.1112 40.4792C51.8417 40.4792 49.8784 40.0839 48.2213 39.2934C46.5642 38.5028 45.3034 37.4428 44.4388 36.1133C43.6103 34.7478 43.196 33.2026 43.196 31.4778C43.196 28.7109 44.2587 26.5729 46.3841 25.0637C48.5095 23.5185 51.7877 22.746 56.2186 22.746H62.0545C61.8744 19.6557 59.803 18.1105 55.8404 18.1105C54.4354 18.1105 53.0125 18.3441 51.5715 18.8112C50.1306 19.2424 48.9058 19.8533 47.8971 20.6438L44.4388 13.6907C46.0599 12.6127 48.0232 11.7862 50.3287 11.2113C52.6703 10.6004 55.0118 10.295 57.3534 10.295ZM56.9751 34.0111C58.1639 34.0111 59.2086 33.7237 60.1092 33.1487C61.0098 32.5738 61.6582 31.7294 62.0545 30.6154V28.0821H57.6236C54.6336 28.0821 53.1386 29.0703 53.1386 31.0466C53.1386 31.945 53.4808 32.6636 54.1653 33.2026C54.8497 33.7416 55.7863 34.0111 56.9751 34.0111Z" fill="white"/>
<path d="M92.0947 29.753L89.0687 32.8253V39.9941H78.8018V0H89.0687V20.9672L99.5516 10.7801H111.71L99.5516 23.285L112.736 39.9941H100.308L92.0947 29.753Z" fill="white"/>
<path d="M144.463 25.441C144.463 25.5128 144.409 26.3573 144.301 27.9743H123.01C123.443 29.4835 124.271 30.6513 125.496 31.4778C126.757 32.2684 128.324 32.6636 130.197 32.6636C131.602 32.6636 132.809 32.466 133.818 32.0707C134.862 31.6755 135.907 31.0286 136.952 30.1303L142.355 35.736C139.509 38.8981 135.349 40.4792 129.873 40.4792C126.451 40.4792 123.443 39.8324 120.849 38.5388C118.255 37.2452 116.238 35.4485 114.797 33.1487C113.392 30.849 112.69 28.2438 112.69 25.3332C112.69 22.4585 113.374 19.8892 114.743 17.6254C116.148 15.3257 118.075 13.529 120.525 12.2354C122.974 10.9418 125.73 10.295 128.792 10.295C131.71 10.295 134.358 10.9058 136.735 12.1276C139.113 13.3134 140.986 15.0562 142.355 17.3559C143.76 19.6197 144.463 22.3148 144.463 25.441ZM128.846 17.5715C127.261 17.5715 125.928 18.0207 124.848 18.919C123.803 19.8174 123.136 21.0391 122.848 22.5843H134.844C134.556 21.0391 133.872 19.8174 132.791 18.919C131.746 18.0207 130.431 17.5715 128.846 17.5715Z" fill="white"/>
<path d="M158.977 14.2836C160.021 12.9541 161.372 11.9659 163.029 11.3191C164.723 10.6363 166.65 10.295 168.811 10.295V19.5119C167.875 19.4041 167.1 19.3502 166.488 19.3502C164.29 19.3502 162.561 19.9431 161.3 21.1289C160.075 22.3148 159.463 24.1294 159.463 26.5729V39.9941H149.196V10.7801H158.977V14.2836Z" fill="white"/>
<rect x="175.918" y="29.0461" width="11.7421" height="11.4331" fill="#1F9D96"/>
<path d="M4.298 68.9191C3.57 68.9191 2.87 68.8024 2.198 68.5691C1.53533 68.3264 1.022 68.0184 0.658 67.6451L1.064 66.8471C1.40933 67.1831 1.87133 67.4678 2.45 67.7011C3.038 67.9251 3.654 68.0371 4.298 68.0371C4.914 68.0371 5.41333 67.9624 5.796 67.8131C6.188 67.6544 6.47267 67.4444 6.65 67.1831C6.83667 66.9218 6.93 66.6324 6.93 66.3151C6.93 65.9324 6.818 65.6244 6.594 65.3911C6.37933 65.1578 6.09467 64.9758 5.74 64.8451C5.38533 64.7051 4.99333 64.5838 4.564 64.4811C4.13467 64.3784 3.70533 64.2711 3.276 64.1591C2.84667 64.0378 2.45 63.8791 2.086 63.6831C1.73133 63.4871 1.442 63.2304 1.218 62.9131C1.00333 62.5864 0.896 62.1618 0.896 61.6391C0.896 61.1538 1.022 60.7104 1.274 60.3091C1.53533 59.8984 1.932 59.5718 2.464 59.3291C2.996 59.0771 3.67733 58.9511 4.508 58.9511C5.05867 58.9511 5.60467 59.0304 6.146 59.1891C6.68733 59.3384 7.154 59.5484 7.546 59.8191L7.196 60.6451C6.776 60.3651 6.328 60.1598 5.852 60.0291C5.38533 59.8984 4.93267 59.8331 4.494 59.8331C3.906 59.8331 3.42067 59.9124 3.038 60.0711C2.65533 60.2298 2.37067 60.4444 2.184 60.7151C2.00667 60.9764 1.918 61.2751 1.918 61.6111C1.918 61.9938 2.02533 62.3018 2.24 62.5351C2.464 62.7684 2.75333 62.9504 3.108 63.0811C3.472 63.2118 3.86867 63.3284 4.298 63.4311C4.72733 63.5338 5.152 63.6458 5.572 63.7671C6.00133 63.8884 6.39333 64.0471 6.748 64.2431C7.112 64.4298 7.40133 64.6818 7.616 64.9991C7.84 65.3164 7.952 65.7318 7.952 66.2451C7.952 66.7211 7.82133 67.1644 7.56 67.5751C7.29867 67.9764 6.89733 68.3031 6.356 68.5551C5.824 68.7978 5.138 68.9191 4.298 68.9191ZM12.9953 68.9051C12.2859 68.9051 11.6466 68.7464 11.0773 68.4291C10.5173 68.1024 10.0739 67.6591 9.74728 67.0991C9.42061 66.5298 9.25728 65.8811 9.25728 65.1531C9.25728 64.4158 9.42061 63.7671 9.74728 63.2071C10.0739 62.6471 10.5173 62.2084 11.0773 61.8911C11.6373 61.5738 12.2766 61.4151 12.9953 61.4151C13.7233 61.4151 14.3673 61.5738 14.9273 61.8911C15.4966 62.2084 15.9399 62.6471 16.2573 63.2071C16.5839 63.7671 16.7473 64.4158 16.7473 65.1531C16.7473 65.8811 16.5839 66.5298 16.2573 67.0991C15.9399 67.6591 15.4966 68.1024 14.9273 68.4291C14.3579 68.7464 13.7139 68.9051 12.9953 68.9051ZM12.9953 68.0231C13.5273 68.0231 13.9986 67.9064 14.4093 67.6731C14.8199 67.4304 15.1419 67.0944 15.3753 66.6651C15.6179 66.2264 15.7393 65.7224 15.7393 65.1531C15.7393 64.5744 15.6179 64.0704 15.3753 63.6411C15.1419 63.2118 14.8199 62.8804 14.4093 62.6471C13.9986 62.4044 13.5319 62.2831 13.0093 62.2831C12.4866 62.2831 12.0199 62.4044 11.6093 62.6471C11.1986 62.8804 10.8719 63.2118 10.6293 63.6411C10.3866 64.0704 10.2653 64.5744 10.2653 65.1531C10.2653 65.7224 10.3866 66.2264 10.6293 66.6651C10.8719 67.0944 11.1986 67.4304 11.6093 67.6731C12.0199 67.9064 12.4819 68.0231 12.9953 68.0231ZM18.9446 68.8351V60.5611C18.9446 59.9078 19.136 59.3804 19.5186 58.9791C19.9013 58.5778 20.452 58.3771 21.1706 58.3771C21.4506 58.3771 21.7213 58.4144 21.9826 58.4891C22.244 58.5638 22.4633 58.6804 22.6406 58.8391L22.3046 59.5811C22.1646 59.4598 22.0013 59.3711 21.8146 59.3151C21.628 59.2498 21.4273 59.2171 21.2126 59.2171C20.7926 59.2171 20.4706 59.3338 20.2466 59.5671C20.0226 59.8004 19.9106 60.1458 19.9106 60.6031V61.7231L19.9386 62.1851V68.8351H18.9446ZM17.6286 62.3111V61.4851H22.1786V62.3111H17.6286ZM25.8448 68.9051C25.1541 68.9051 24.6221 68.7184 24.2488 68.3451C23.8754 67.9718 23.6888 67.4444 23.6888 66.7631V59.8611H24.6828V66.7071C24.6828 67.1364 24.7901 67.4678 25.0048 67.7011C25.2288 67.9344 25.5461 68.0511 25.9568 68.0511C26.3954 68.0511 26.7594 67.9251 27.0488 67.6731L27.3988 68.3871C27.2028 68.5644 26.9648 68.6951 26.6848 68.7791C26.4141 68.8631 26.1341 68.9051 25.8448 68.9051ZM22.3728 62.3111V61.4851H26.9228V62.3111H22.3728ZM30.5695 68.8351L27.7975 61.4851H28.7495L31.2695 68.3031H30.8355L33.4255 61.4851H34.2795L36.8415 68.3031H36.4075L38.9695 61.4851H39.8795L37.0935 68.8351H36.1555L33.6915 62.4231H33.9855L31.5075 68.8351H30.5695ZM45.7635 68.8351V67.2111L45.7215 66.9451V64.2291C45.7215 63.6038 45.5442 63.1231 45.1895 62.7871C44.8442 62.4511 44.3262 62.2831 43.6355 62.2831C43.1595 62.2831 42.7068 62.3624 42.2775 62.5211C41.8482 62.6798 41.4842 62.8898 41.1855 63.1511L40.7375 62.4091C41.1108 62.0918 41.5588 61.8491 42.0815 61.6811C42.6042 61.5038 43.1548 61.4151 43.7335 61.4151C44.6855 61.4151 45.4182 61.6531 45.9315 62.1291C46.4542 62.5958 46.7155 63.3098 46.7155 64.2711V68.8351H45.7635ZM43.2295 68.9051C42.6788 68.9051 42.1982 68.8164 41.7875 68.6391C41.3862 68.4524 41.0782 68.2004 40.8635 67.8831C40.6488 67.5564 40.5415 67.1831 40.5415 66.7631C40.5415 66.3804 40.6302 66.0351 40.8075 65.7271C40.9942 65.4098 41.2928 65.1578 41.7035 64.9711C42.1235 64.7751 42.6835 64.6771 43.3835 64.6771H45.9175V65.4191H43.4115C42.7022 65.4191 42.2075 65.5451 41.9275 65.7971C41.6568 66.0491 41.5215 66.3618 41.5215 66.7351C41.5215 67.1551 41.6848 67.4911 42.0115 67.7431C42.3382 67.9951 42.7955 68.1211 43.3835 68.1211C43.9435 68.1211 44.4242 67.9951 44.8255 67.7431C45.2362 67.4818 45.5348 67.1084 45.7215 66.6231L45.9455 67.3091C45.7588 67.7944 45.4322 68.1818 44.9655 68.4711C44.5082 68.7604 43.9295 68.9051 43.2295 68.9051ZM49.4153 68.8351V61.4851H50.3673V63.4871L50.2693 63.1371C50.4746 62.5771 50.82 62.1524 51.3053 61.8631C51.7906 61.5644 52.3926 61.4151 53.1113 61.4151V62.3811C53.074 62.3811 53.0366 62.3811 52.9993 62.3811C52.962 62.3718 52.9246 62.3671 52.8873 62.3671C52.1126 62.3671 51.506 62.6051 51.0673 63.0811C50.6286 63.5478 50.4093 64.2151 50.4093 65.0831V68.8351H49.4153ZM57.9787 68.9051C57.2134 68.9051 56.5414 68.7464 55.9627 68.4291C55.384 68.1024 54.9314 67.6591 54.6047 67.0991C54.278 66.5298 54.1147 65.8811 54.1147 65.1531C54.1147 64.4251 54.2687 63.7811 54.5767 63.2211C54.894 62.6611 55.3234 62.2224 55.8647 61.9051C56.4154 61.5784 57.0314 61.4151 57.7127 61.4151C58.4034 61.4151 59.0147 61.5738 59.5467 61.8911C60.088 62.1991 60.5127 62.6378 60.8207 63.2071C61.1287 63.7671 61.2827 64.4158 61.2827 65.1531C61.2827 65.1998 61.278 65.2511 61.2687 65.3071C61.2687 65.3538 61.2687 65.4051 61.2687 65.4611H54.8707V64.7191H60.7367L60.3447 65.0131C60.3447 64.4811 60.228 64.0098 59.9947 63.5991C59.7707 63.1791 59.4627 62.8524 59.0707 62.6191C58.6787 62.3858 58.226 62.2691 57.7127 62.2691C57.2087 62.2691 56.756 62.3858 56.3547 62.6191C55.9534 62.8524 55.6407 63.1791 55.4167 63.5991C55.1927 64.0191 55.0807 64.4998 55.0807 65.0411V65.1951C55.0807 65.7551 55.202 66.2498 55.4447 66.6791C55.6967 67.0991 56.042 67.4304 56.4807 67.6731C56.9287 67.9064 57.4374 68.0231 58.0067 68.0231C58.4547 68.0231 58.87 67.9438 59.2527 67.7851C59.6447 67.6264 59.9807 67.3838 60.2607 67.0571L60.8207 67.7011C60.494 68.0931 60.0834 68.3918 59.5887 68.5971C59.1034 68.8024 58.5667 68.9051 57.9787 68.9051ZM67.18 68.8351V59.0351H71.17C72.2153 59.0351 73.13 59.2451 73.914 59.6651C74.7073 60.0758 75.3233 60.6498 75.762 61.3871C76.2007 62.1244 76.42 62.9738 76.42 63.9351C76.42 64.8964 76.2007 65.7458 75.762 66.4831C75.3233 67.2204 74.7073 67.7991 73.914 68.2191C73.13 68.6298 72.2153 68.8351 71.17 68.8351H67.18ZM68.216 67.9391H71.114C71.982 67.9391 72.7333 67.7711 73.368 67.4351C74.012 67.0898 74.5113 66.6184 74.866 66.0211C75.2207 65.4144 75.398 64.7191 75.398 63.9351C75.398 63.1418 75.2207 62.4464 74.866 61.8491C74.5113 61.2518 74.012 60.7851 73.368 60.4491C72.7333 60.1038 71.982 59.9311 71.114 59.9311H68.216V67.9391ZM78.5364 68.8351V61.4851H79.5304V68.8351H78.5364ZM79.0404 59.8611C78.8351 59.8611 78.6624 59.7911 78.5224 59.6511C78.3824 59.5111 78.3124 59.3431 78.3124 59.1471C78.3124 58.9511 78.3824 58.7878 78.5224 58.6571C78.6624 58.5171 78.8351 58.4471 79.0404 58.4471C79.2457 58.4471 79.4184 58.5124 79.5584 58.6431C79.6984 58.7738 79.7684 58.9371 79.7684 59.1331C79.7684 59.3384 79.6984 59.5111 79.5584 59.6511C79.4277 59.7911 79.2551 59.8611 79.0404 59.8611ZM85.4322 71.6211C84.7602 71.6211 84.1162 71.5231 83.5002 71.3271C82.8842 71.1311 82.3848 70.8511 82.0022 70.4871L82.5062 69.7311C82.8515 70.0391 83.2762 70.2818 83.7802 70.4591C84.2935 70.6458 84.8348 70.7391 85.4042 70.7391C86.3375 70.7391 87.0235 70.5198 87.4622 70.0811C87.9008 69.6518 88.1202 68.9798 88.1202 68.0651V66.2311L88.2602 64.9711L88.1622 63.7111V61.4851H89.1142V67.9391C89.1142 69.2084 88.8015 70.1371 88.1762 70.7251C87.5602 71.3224 86.6455 71.6211 85.4322 71.6211ZM85.2502 68.5551C84.5502 68.5551 83.9202 68.4058 83.3602 68.1071C82.8002 67.7991 82.3568 67.3744 82.0302 66.8331C81.7128 66.2918 81.5542 65.6711 81.5542 64.9711C81.5542 64.2711 81.7128 63.6551 82.0302 63.1231C82.3568 62.5818 82.8002 62.1618 83.3602 61.8631C83.9202 61.5644 84.5502 61.4151 85.2502 61.4151C85.9035 61.4151 86.4915 61.5504 87.0142 61.8211C87.5368 62.0918 87.9522 62.4931 88.2602 63.0251C88.5682 63.5571 88.7222 64.2058 88.7222 64.9711C88.7222 65.7364 88.5682 66.3851 88.2602 66.9171C87.9522 67.4491 87.5368 67.8551 87.0142 68.1351C86.4915 68.4151 85.9035 68.5551 85.2502 68.5551ZM85.3482 67.6731C85.8895 67.6731 86.3702 67.5611 86.7902 67.3371C87.2102 67.1038 87.5415 66.7864 87.7842 66.3851C88.0268 65.9744 88.1482 65.5031 88.1482 64.9711C88.1482 64.4391 88.0268 63.9724 87.7842 63.5711C87.5415 63.1698 87.2102 62.8571 86.7902 62.6331C86.3702 62.3998 85.8895 62.2831 85.3482 62.2831C84.8162 62.2831 84.3355 62.3998 83.9062 62.6331C83.4862 62.8571 83.1548 63.1698 82.9122 63.5711C82.6788 63.9724 82.5622 64.4391 82.5622 64.9711C82.5622 65.5031 82.6788 65.9744 82.9122 66.3851C83.1548 66.7864 83.4862 67.1038 83.9062 67.3371C84.3355 67.5611 84.8162 67.6731 85.3482 67.6731ZM91.8801 68.8351V61.4851H92.8741V68.8351H91.8801ZM92.3841 59.8611C92.1788 59.8611 92.0061 59.7911 91.8661 59.6511C91.7261 59.5111 91.6561 59.3431 91.6561 59.1471C91.6561 58.9511 91.7261 58.7878 91.8661 58.6571C92.0061 58.5171 92.1788 58.4471 92.3841 58.4471C92.5895 58.4471 92.7621 58.5124 92.9021 58.6431C93.0421 58.7738 93.1121 58.9371 93.1121 59.1331C93.1121 59.3384 93.0421 59.5111 92.9021 59.6511C92.7715 59.7911 92.5988 59.8611 92.3841 59.8611ZM97.9639 68.9051C97.2732 68.9051 96.7412 68.7184 96.3679 68.3451C95.9946 67.9718 95.8079 67.4444 95.8079 66.7631V59.8611H96.8019V66.7071C96.8019 67.1364 96.9092 67.4678 97.1239 67.7011C97.3479 67.9344 97.6652 68.0511 98.0759 68.0511C98.5146 68.0511 98.8786 67.9251 99.1679 67.6731L99.5179 68.3871C99.3219 68.5644 99.0839 68.6951 98.8039 68.7791C98.5332 68.8631 98.2532 68.9051 97.9639 68.9051ZM94.4919 62.3111V61.4851H99.0419V62.3111H94.4919ZM105.933 68.8351V67.2111L105.891 66.9451V64.2291C105.891 63.6038 105.714 63.1231 105.359 62.7871C105.014 62.4511 104.496 62.2831 103.805 62.2831C103.329 62.2831 102.877 62.3624 102.447 62.5211C102.018 62.6798 101.654 62.8898 101.355 63.1511L100.907 62.4091C101.281 62.0918 101.729 61.8491 102.251 61.6811C102.774 61.5038 103.325 61.4151 103.903 61.4151C104.855 61.4151 105.588 61.6531 106.101 62.1291C106.624 62.5958 106.885 63.3098 106.885 64.2711V68.8351H105.933ZM103.399 68.9051C102.849 68.9051 102.368 68.8164 101.957 68.6391C101.556 68.4524 101.248 68.2004 101.033 67.8831C100.819 67.5564 100.711 67.1831 100.711 66.7631C100.711 66.3804 100.8 66.0351 100.977 65.7271C101.164 65.4098 101.463 65.1578 101.873 64.9711C102.293 64.7751 102.853 64.6771 103.553 64.6771H106.087V65.4191H103.581C102.872 65.4191 102.377 65.5451 102.097 65.7971C101.827 66.0491 101.691 66.3618 101.691 66.7351C101.691 67.1551 101.855 67.4911 102.181 67.7431C102.508 67.9951 102.965 68.1211 103.553 68.1211C104.113 68.1211 104.594 67.9951 104.995 67.7431C105.406 67.4818 105.705 67.1084 105.891 66.6231L106.115 67.3091C105.929 67.7944 105.602 68.1818 105.135 68.4711C104.678 68.7604 104.099 68.9051 103.399 68.9051ZM109.585 68.8351V58.4471H110.579V68.8351H109.585ZM119.921 68.9191C119.193 68.9191 118.493 68.8024 117.821 68.5691C117.158 68.3264 116.645 68.0184 116.281 67.6451L116.687 66.8471C117.032 67.1831 117.494 67.4678 118.073 67.7011C118.661 67.9251 119.277 68.0371 119.921 68.0371C120.537 68.0371 121.036 67.9624 121.419 67.8131C121.811 67.6544 122.096 67.4444 122.273 67.1831C122.46 66.9218 122.553 66.6324 122.553 66.3151C122.553 65.9324 122.441 65.6244 122.217 65.3911C122.002 65.1578 121.718 64.9758 121.363 64.8451C121.008 64.7051 120.616 64.5838 120.187 64.4811C119.758 64.3784 119.328 64.2711 118.899 64.1591C118.47 64.0378 118.073 63.8791 117.709 63.6831C117.354 63.4871 117.065 63.2304 116.841 62.9131C116.626 62.5864 116.519 62.1618 116.519 61.6391C116.519 61.1538 116.645 60.7104 116.897 60.3091C117.158 59.8984 117.555 59.5718 118.087 59.3291C118.619 59.0771 119.3 58.9511 120.131 58.9511C120.682 58.9511 121.228 59.0304 121.769 59.1891C122.31 59.3384 122.777 59.5484 123.169 59.8191L122.819 60.6451C122.399 60.3651 121.951 60.1598 121.475 60.0291C121.008 59.8984 120.556 59.8331 120.117 59.8331C119.529 59.8331 119.044 59.9124 118.661 60.0711C118.278 60.2298 117.994 60.4444 117.807 60.7151C117.63 60.9764 117.541 61.2751 117.541 61.6111C117.541 61.9938 117.648 62.3018 117.863 62.5351C118.087 62.7684 118.376 62.9504 118.731 63.0811C119.095 63.2118 119.492 63.3284 119.921 63.4311C120.35 63.5338 120.775 63.6458 121.195 63.7671C121.624 63.8884 122.016 64.0471 122.371 64.2431C122.735 64.4298 123.024 64.6818 123.239 64.9991C123.463 65.3164 123.575 65.7318 123.575 66.2451C123.575 66.7211 123.444 67.1644 123.183 67.5751C122.922 67.9764 122.52 68.3031 121.979 68.5551C121.447 68.7978 120.761 68.9191 119.921 68.9191ZM127.946 68.9051C127.256 68.9051 126.724 68.7184 126.35 68.3451C125.977 67.9718 125.79 67.4444 125.79 66.7631V59.8611H126.784V66.7071C126.784 67.1364 126.892 67.4678 127.106 67.7011C127.33 67.9344 127.648 68.0511 128.058 68.0511C128.497 68.0511 128.861 67.9251 129.15 67.6731L129.5 68.3871C129.304 68.5644 129.066 68.6951 128.786 68.7791C128.516 68.8631 128.236 68.9051 127.946 68.9051ZM124.474 62.3111V61.4851H129.024V62.3111H124.474ZM134.348 68.9051C133.722 68.9051 133.176 68.7884 132.71 68.5551C132.243 68.3218 131.879 67.9718 131.618 67.5051C131.366 67.0384 131.24 66.4551 131.24 65.7551V61.4851H132.234V65.6431C132.234 66.4271 132.425 67.0198 132.808 67.4211C133.2 67.8131 133.746 68.0091 134.446 68.0091C134.959 68.0091 135.402 67.9064 135.776 67.7011C136.158 67.4864 136.448 67.1784 136.644 66.7771C136.849 66.3758 136.952 65.8951 136.952 65.3351V61.4851H137.946V68.8351H136.994V66.8191L137.148 67.1831C136.914 67.7244 136.55 68.1491 136.056 68.4571C135.57 68.7558 135.001 68.9051 134.348 68.9051ZM143.642 68.9051C142.942 68.9051 142.312 68.7464 141.752 68.4291C141.201 68.1118 140.767 67.6731 140.45 67.1131C140.133 66.5438 139.974 65.8904 139.974 65.1531C139.974 64.4064 140.133 63.7531 140.45 63.1931C140.767 62.6331 141.201 62.1991 141.752 61.8911C142.312 61.5738 142.942 61.4151 143.642 61.4151C144.286 61.4151 144.86 61.5598 145.364 61.8491C145.877 62.1384 146.283 62.5631 146.582 63.1231C146.89 63.6738 147.044 64.3504 147.044 65.1531C147.044 65.9464 146.895 66.6231 146.596 67.1831C146.297 67.7431 145.891 68.1724 145.378 68.4711C144.874 68.7604 144.295 68.9051 143.642 68.9051ZM143.712 68.0231C144.235 68.0231 144.701 67.9064 145.112 67.6731C145.532 67.4304 145.859 67.0944 146.092 66.6651C146.335 66.2264 146.456 65.7224 146.456 65.1531C146.456 64.5744 146.335 64.0704 146.092 63.6411C145.859 63.2118 145.532 62.8804 145.112 62.6471C144.701 62.4044 144.235 62.2831 143.712 62.2831C143.199 62.2831 142.737 62.4044 142.326 62.6471C141.915 62.8804 141.589 63.2118 141.346 63.6411C141.103 64.0704 140.982 64.5744 140.982 65.1531C140.982 65.7224 141.103 66.2264 141.346 66.6651C141.589 67.0944 141.915 67.4304 142.326 67.6731C142.737 67.9064 143.199 68.0231 143.712 68.0231ZM146.484 68.8351V66.6231L146.582 65.1391L146.442 63.6551V58.4471H147.436V68.8351H146.484ZM150.204 68.8351V61.4851H151.198V68.8351H150.204ZM150.708 59.8611C150.503 59.8611 150.33 59.7911 150.19 59.6511C150.05 59.5111 149.98 59.3431 149.98 59.1471C149.98 58.9511 150.05 58.7878 150.19 58.6571C150.33 58.5171 150.503 58.4471 150.708 58.4471C150.914 58.4471 151.086 58.5124 151.226 58.6431C151.366 58.7738 151.436 58.9371 151.436 59.1331C151.436 59.3384 151.366 59.5111 151.226 59.6511C151.096 59.7911 150.923 59.8611 150.708 59.8611ZM156.96 68.9051C156.251 68.9051 155.611 68.7464 155.042 68.4291C154.482 68.1024 154.039 67.6591 153.712 67.0991C153.385 66.5298 153.222 65.8811 153.222 65.1531C153.222 64.4158 153.385 63.7671 153.712 63.2071C154.039 62.6471 154.482 62.2084 155.042 61.8911C155.602 61.5738 156.241 61.4151 156.96 61.4151C157.688 61.4151 158.332 61.5738 158.892 61.8911C159.461 62.2084 159.905 62.6471 160.222 63.2071C160.549 63.7671 160.712 64.4158 160.712 65.1531C160.712 65.8811 160.549 66.5298 160.222 67.0991C159.905 67.6591 159.461 68.1024 158.892 68.4291C158.323 68.7464 157.679 68.9051 156.96 68.9051ZM156.96 68.0231C157.492 68.0231 157.963 67.9064 158.374 67.6731C158.785 67.4304 159.107 67.0944 159.34 66.6651C159.583 66.2264 159.704 65.7224 159.704 65.1531C159.704 64.5744 159.583 64.0704 159.34 63.6411C159.107 63.2118 158.785 62.8804 158.374 62.6471C157.963 62.4044 157.497 62.2831 156.974 62.2831C156.451 62.2831 155.985 62.4044 155.574 62.6471C155.163 62.8804 154.837 63.2118 154.594 63.6411C154.351 64.0704 154.23 64.5744 154.23 65.1531C154.23 65.7224 154.351 66.2264 154.594 66.6651C154.837 67.0944 155.163 67.4304 155.574 67.6731C155.985 67.9064 156.447 68.0231 156.96 68.0231Z" fill="white"/>
</svg>
